<?xml version="1.0" encoding="UTF-8"?>
<svg id="Calque_1" xmlns="http://www.w3.org/2000/svg" version="1.1" viewBox="0 0 820 250">
  <!-- Generator: Adobe Illustrator 29.3.1, SVG Export Plug-In . SVG Version: 2.1.0 Build 151)  -->
  <defs>
    <style>
      .st0 {
        fill: #00aee2;
      }

      .st1 {
        fill: #0077b7;
      }
    </style>
  </defs>
  <path class="st1" d="M759.35,100.65c-3.9-3.41-9.34-5.36-16.49-5.36-14.79,0-24.53,9.34-24.53,22.58v14.38c0,13.24,9.75,22.58,24.53,22.58,7.64,0,13.32-2.6,17.14-6.42v-7.07c-3.17,4.47-8.61,8.12-17.06,8.12-12.27,0-18.68-7.23-18.68-17.22v-14.38c0-9.99,6.42-17.22,18.68-17.22,7.8,0,13.08,2.92,16.41,6.91v-6.91ZM694.77,153.53h5.93v-56.86h-5.93v56.86ZM693.63,75.63c0,2.19,1.87,4.06,4.06,4.06s4.06-1.87,4.06-4.06-1.87-4.06-4.06-4.06-4.06,1.87-4.06,4.06ZM669.59,72.46v30.79c-3.41-4.79-9.67-7.96-17.71-7.96-13.32,0-23.72,9.18-23.72,22.42v14.54c0,13.16,10.4,22.58,23.72,22.58s23.64-9.42,23.64-22.58v-59.79h-5.93ZM651.88,100.65c10.48,0,17.71,7.47,17.71,17.06v14.54c0,9.91-6.99,17.22-17.71,17.22s-17.87-7.31-17.87-17.22v-14.54c0-9.91,7.07-17.06,17.87-17.06ZM574.22,125.02c4.55,3.49,10.97,5.77,18.6,5.77,12.27,0,21.61-5.69,21.61-16.82,0-11.94-9.67-18.68-22.5-18.68s-23.48,9.34-23.48,22.58v14.54c0,13.24,10.8,22.42,25.18,22.42,9.26,0,16.25-3.9,19.01-7.39v-7.07c-2.92,4.22-9.1,9.1-18.77,9.1-11.94,0-19.66-7.15-19.66-17.06v-7.39ZM574.22,117.79c0-9.91,7.23-17.14,17.71-17.14s16.73,5.28,16.73,13.32-6.17,11.45-15.92,11.45c-7.72,0-14.38-2.52-18.52-6.58v-1.06ZM474.95,153.53v-35.91c0-9.91,5.85-16.98,16.33-16.98s16.41,6.66,16.41,16.25v36.64h5.85v-36.64c0-9.58,6.09-16.25,16.41-16.25s16.33,7.07,16.33,16.98v35.91h5.93v-35.99c0-13.4-9.42-22.26-22.26-22.26-8.86,0-15.92,4.14-19.33,10.72-3.49-6.58-10.48-10.72-19.33-10.72-12.84,0-22.26,8.86-22.26,22.26v35.99h5.93ZM409.8,109.18c3.09-3.82,9.58-8.53,19.09-8.53,11.53,0,18.12,7.31,18.12,17.22v6.82c-3.98-3.33-10.07-5.77-17.87-5.77-12.92,0-22.5,6.42-22.5,17.55,0,12.27,10.4,18.36,23.31,18.36s22.83-8.53,22.83-21.77v-15.19c0-13.57-8.77-22.58-23.72-22.58-9.67,0-16.25,4.06-19.25,6.91v6.99ZM447,133.06c0,9.91-6.58,16.41-17.06,16.41s-17.22-4.63-17.22-12.92,6.26-12.35,16.49-12.35c7.47,0,14.54,2.76,17.79,7.07v1.79ZM400.54,96.34c-1.22-.32-3.09-.49-4.96-.49-13.24,0-22.75,9.02-22.75,22.26v35.42h5.93v-35.42c0-9.91,6.17-16.82,16.9-16.82,1.95,0,3.66.16,4.87.49v-5.44ZM313.62,109.18c3.09-3.82,9.59-8.53,19.09-8.53,11.54,0,18.12,7.31,18.12,17.22v6.82c-3.98-3.33-10.07-5.77-17.87-5.77-12.92,0-22.5,6.42-22.5,17.55,0,12.27,10.4,18.36,23.32,18.36s22.83-8.53,22.83-21.77v-15.19c0-13.57-8.77-22.58-23.72-22.58-9.67,0-16.25,4.06-19.25,6.91v6.99ZM350.82,133.06c0,9.91-6.58,16.41-17.06,16.41s-17.22-4.63-17.22-12.92,6.25-12.35,16.49-12.35c7.47,0,14.54,2.76,17.79,7.07v1.79ZM256.18,178.55v-31.68c3.57,5.04,10.4,7.96,17.87,7.96,13.24,0,23.64-9.26,23.64-22.5v-14.54c0-13.24-10.48-22.5-23.72-22.5s-23.72,9.26-23.72,22.5v60.76h5.93ZM256.18,117.79c0-9.91,6.99-17.14,17.79-17.14s17.79,7.23,17.79,17.14v14.54c0,9.91-6.9,17.14-17.71,17.14s-17.87-7.23-17.87-17.14v-14.54Z"/>
  <g>
    <path class="st1" d="M157.93,106.79l-22.02-12.71c-.07-1.9-1.08-3.72-2.85-4.74-2.74-1.58-6.23-.64-7.81,2.09-1.58,2.74-.64,6.23,2.09,7.81,1.77,1.02,3.85.98,5.53.1l22.02,12.71c1.36.78,2.2,2.24,2.2,3.81v69.24c0,9.51-7.73,17.24-17.24,17.24h-5.94c-4.61,0-8.93-1.79-12.19-5.05-3.26-3.26-5.05-7.59-5.05-12.19v-19.84c0-1.09-.58-2.09-1.52-2.63-.94-.54-2.1-.54-3.04,0l-17.18,9.92c-8.23,4.75-18.8,1.92-23.55-6.31l-2.97-5.15c-2.3-3.99-2.91-8.63-1.72-13.08,1.19-4.45,4.04-8.17,8.03-10.47l17.18-9.92c.94-.54,1.52-1.55,1.52-2.63s-.58-2.09-1.52-2.63l-17.18-9.92c-3.99-2.3-6.84-6.02-8.03-10.47-1.19-4.45-.58-9.09,1.72-13.08l2.97-5.15c2.3-3.99,6.02-6.84,10.47-8.03,4.45-1.19,9.09-.58,13.08,1.72l15.66,9.04v-7.03l-12.61-7.28c-5.4-3.12-11.68-3.94-17.7-2.33-6.02,1.61-11.05,5.47-14.16,10.87l-2.97,5.15c-3.12,5.4-3.94,11.68-2.33,17.7,1.61,6.02,5.47,11.05,10.87,14.16l12.61,7.28-12.61,7.28c-5.4,3.11-9.26,8.14-10.87,14.16-1.61,6.02-.79,12.3,2.33,17.7l2.97,5.15c6.43,11.14,20.72,14.97,31.86,8.54l12.61-7.28v14.57c0,6.23,2.43,12.09,6.83,16.49,4.41,4.41,10.26,6.83,16.49,6.83h5.94c12.86,0,23.32-10.46,23.32-23.32v-69.24c0-3.73-2.01-7.21-5.24-9.08Z"/>
    <path class="st0" d="M212.95,146.45c-1.61-6.02-5.47-11.05-10.87-14.16l-12.61-7.28,12.61-7.28c11.14-6.43,14.97-20.72,8.54-31.86l-2.97-5.15c-6.43-11.14-20.72-14.97-31.86-8.54l-12.61,7.28v-14.57c0-12.86-10.46-23.32-23.32-23.32h-5.94c-12.86,0-23.32,10.46-23.32,23.32v69.24c0,3.73,2.01,7.21,5.24,9.08l22.02,12.71c.07,1.9,1.08,3.72,2.85,4.74,2.74,1.58,6.23.64,7.81-2.09,1.58-2.74.64-6.23-2.09-7.81-1.77-1.02-3.85-.98-5.53-.1l-22.02-12.71c-1.36-.78-2.2-2.24-2.2-3.81v-69.24c0-9.51,7.73-17.24,17.24-17.24h5.94c9.51,0,17.24,7.73,17.24,17.24v19.84c0,1.09.58,2.09,1.52,2.63.94.54,2.1.54,3.04,0l17.18-9.92c8.23-4.75,18.8-1.92,23.55,6.31l2.97,5.15c4.75,8.23,1.92,18.8-6.31,23.55l-17.18,9.92c-.94.54-1.52,1.55-1.52,2.63s.58,2.09,1.52,2.63l17.18,9.92c3.99,2.3,6.84,6.02,8.03,10.47,1.19,4.45.58,9.09-1.72,13.08l-2.97,5.15c-2.3,3.99-6.02,6.84-10.47,8.03-4.45,1.19-9.09.58-13.08-1.72l-15.66-9.04v7.03l12.61,7.28c3.59,2.08,7.58,3.14,11.62,3.14,2.03,0,4.07-.27,6.07-.8,6.02-1.61,11.05-5.47,14.16-10.87l2.97-5.15c3.12-5.4,3.94-11.68,2.33-17.7Z"/>
  </g>
</svg>